<?xml version="1.0" standalone="no"?>
<!DOCTYPE svg PUBLIC "-//W3C//DTD SVG 20010904//EN"
 "http://www.w3.org/TR/2001/REC-SVG-20010904/DTD/svg10.dtd">
<svg version="1.0" xmlns="http://www.w3.org/2000/svg"
 width="564.000000pt" height="532.000000pt" viewBox="0 0 564.000000 532.000000"
 preserveAspectRatio="xMidYMid meet">
<metadata>
Created by potrace 1.15, written by Peter Selinger 2001-2017
</metadata>
<g transform="translate(0.000000,532.000000) scale(0.100000,-0.100000)"
fill="#000000" stroke="none">
<path d="M2655 5185 c-445 -48 -890 -232 -1245 -515 -115 -91 -329 -312 -421
-435 -246 -325 -398 -691 -460 -1108 -29 -199 -29 -486 0 -685 71 -476 251
-867 572 -1247 94 -111 164 -178 308 -293 493 -396 1108 -580 1741 -521 357
33 735 159 1038 347 526 327 919 859 1067 1447 64 252 69 303 69 610 0 307 -5
358 -69 610 -42 169 -91 298 -176 467 -248 489 -634 868 -1124 1104 -392 189
-855 266 -1300 219z m601 -155 c514 -79 993 -334 1335 -711 112 -124 143 -164
229 -294 170 -258 287 -559 341 -875 30 -180 33 -524 5 -700 -114 -725 -552
-1339 -1196 -1678 -437 -229 -956 -311 -1430 -226 -492 88 -909 309 -1248 658
-434 448 -656 1017 -639 1636 9 291 56 530 152 770 306 764 964 1291 1772
1419 174 28 499 28 679 1z"/>
<path d="M2170 4355 c-399 -134 -732 -248 -740 -253 -23 -14 -24 -65 -3 -83
10 -8 125 -51 256 -94 l237 -80 0 -447 c0 -433 1 -449 20 -468 45 -45 203 -86
470 -122 224 -31 756 -33 975 -5 283 37 449 79 503 129 l22 21 0 446 0 446
128 43 c70 23 130 43 135 42 4 0 7 -218 7 -485 l0 -485 -48 0 c-77 0 -81 -9
-84 -185 l-3 -150 -1320 -5 -1320 -5 -37 -23 c-76 -48 -147 -162 -179 -292
-21 -81 -18 -308 4 -390 38 -142 114 -251 200 -291 40 -17 74 -19 576 -19 503
0 533 -1 529 -17 -3 -10 -40 -107 -83 -217 -65 -168 -76 -202 -66 -222 20 -46
52 -41 158 25 l98 60 25 -31 c68 -87 76 -93 106 -83 26 9 36 29 99 187 39 97
73 179 77 183 3 3 36 -72 73 -167 38 -95 75 -181 84 -191 27 -32 61 -17 108
45 l44 57 100 -60 c108 -66 140 -71 160 -26 8 19 2 44 -34 137 -25 63 -61 157
-81 207 -20 51 -36 97 -36 103 0 7 177 10 533 10 601 0 573 -3 654 80 208 216
179 759 -49 905 l-47 30 0 156 c-1 181 -5 189 -84 189 l-47 0 2 507 3 507 54
21 c64 24 79 43 66 81 -10 26 -47 40 -745 275 -404 136 -744 248 -755 248 -11
0 -346 -110 -745 -244z m1380 -81 c338 -114 618 -210 622 -213 4 -3 -277 -102
-625 -219 l-632 -213 -632 213 c-348 116 -630 214 -627 217 11 12 1230 420
1254 420 14 1 302 -92 640 -205z m-635 -754 c12 0 216 65 453 144 l432 145 0
-403 0 -404 -27 -11 c-128 -52 -544 -101 -858 -101 -321 0 -719 47 -857 102
l-28 10 0 404 0 403 432 -145 c237 -79 441 -144 453 -144z m1395 -845 c0 -96
-3 -175 -6 -175 -3 0 -17 9 -31 20 -14 11 -31 20 -38 20 -7 0 -24 -9 -38 -20
-14 -11 -28 -20 -31 -20 -3 0 -6 79 -6 175 l0 175 75 0 75 0 0 -175z m-2767
-194 c59 -53 117 -189 117 -278 l0 -33 -101 0 c-99 0 -101 0 -129 -30 -54 -58
-82 -200 -62 -310 10 -54 10 -55 -8 -32 -51 62 -86 231 -76 362 11 148 50 255
117 315 51 46 94 47 142 6z m1307 -19 c79 -82 118 -227 107 -397 -10 -154 -67
-291 -139 -335 -32 -19 -51 -20 -590 -20 l-558 0 34 68 c55 108 70 178 70 337
1 154 -17 237 -74 343 l-28 52 566 0 566 0 46 -48z m279 22 c157 -132 167
-565 17 -727 -33 -35 -65 -47 -131 -47 l-53 0 30 55 c57 105 73 183 73 350 0
166 -16 237 -74 343 l-29 52 68 0 c59 0 73 -4 99 -26z m921 -58 c0 -76 2 -86
22 -100 33 -23 42 -21 102 29 31 25 58 45 61 45 3 0 30 -20 61 -45 60 -50 69
-52 102 -29 19 13 22 24 22 86 0 69 1 71 19 54 29 -26 68 -105 85 -173 47
-182 17 -404 -70 -519 -51 -67 -26 -64 -639 -64 -306 0 -555 3 -553 8 2 4 19
37 36 75 98 206 91 479 -19 680 l-20 37 395 0 396 0 0 -84z m-2393 -430 c-3
-35 -18 -94 -33 -131 -27 -68 -94 -152 -113 -141 -13 8 -41 135 -41 188 0 47
16 116 32 136 7 7 38 12 86 12 l75 0 -6 -64z m1173 -401 c0 -9 -113 -290 -120
-298 -4 -4 -19 8 -34 28 -32 42 -53 44 -112 9 -24 -14 -44 -21 -44 -16 0 11
86 235 101 265 8 14 25 17 109 17 55 0 100 -2 100 -5z m427 -135 c29 -74 53
-138 53 -143 0 -5 -21 3 -46 17 -62 34 -77 33 -113 -11 -17 -20 -32 -35 -34
-32 -3 3 -92 233 -113 292 -6 16 1 18 97 15 l103 -3 53 -135z"/>
</g>
</svg>
