<?xml version="1.0" standalone="no"?>
<!DOCTYPE svg PUBLIC "-//W3C//DTD SVG 20010904//EN"
 "http://www.w3.org/TR/2001/REC-SVG-20010904/DTD/svg10.dtd">
<svg version="1.0" xmlns="http://www.w3.org/2000/svg"
 width="65" height="65" viewBox="0 0 334.000000 328.000000"
 preserveAspectRatio="xMidYMid meet">
 <metadata>
  Icon created by Good Ware
</metadata>
<g transform="translate(0.000000,328.000000) scale(0.100000,-0.100000)"
fill="#000000" stroke="none">
<path d="M1431 3215 c-286 -47 -514 -145 -751 -325 -80 -61 -217 -200 -287
-291 -319 -416 -414 -975 -252 -1472 41 -127 117 -283 196 -402 91 -137 301
-347 438 -438 354 -233 741 -317 1165 -251 558 87 1049 496 1249 1043 35 93
65 225 82 348 17 130 6 389 -21 518 -135 636 -625 1126 -1258 1256 -127 27
-438 34 -561 14z m464 -96 c326 -49 603 -189 844 -428 293 -290 444 -653 444
-1066 0 -409 -142 -761 -427 -1053 -282 -290 -626 -444 -1030 -459 -266 -10
-491 39 -728 159 -157 79 -272 163 -393 284 -304 306 -458 697 -442 1120 12
324 115 612 308 864 72 94 222 241 314 307 325 234 719 330 1110 272z"/>
<path d="M1200 2679 c-567 -190 -530 -175 -530 -205 0 -29 22 -40 213 -103
l127 -43 0 -304 0 -303 30 -16 c38 -20 170 -50 290 -67 126 -17 554 -17 680 0
141 20 266 51 295 73 l25 20 0 299 0 298 48 17 c26 9 66 22 90 30 l42 13 0
-323 0 -324 -37 -3 -38 -3 -3 -107 -3 -108 -867 0 c-830 0 -869 -1 -909 -19
-153 -70 -196 -420 -72 -590 57 -79 65 -81 462 -81 191 0 347 -4 347 -8 0 -5
-23 -66 -50 -137 -28 -71 -50 -138 -48 -149 5 -35 43 -31 111 12 l63 40 27
-39 c29 -40 56 -49 75 -26 6 7 31 64 55 127 24 62 47 109 50 104 3 -5 19 -45
36 -89 58 -147 62 -155 87 -155 16 0 32 12 50 39 l26 39 63 -40 c69 -43 108
-47 113 -13 1 11 -22 82 -52 158 l-54 137 352 0 c394 0 406 2 460 73 68 90 96
273 62 407 -20 77 -74 163 -116 185 l-29 15 -3 113 -3 112 -37 3 -38 3 0 338
0 338 40 16 c32 12 40 21 40 40 0 14 -7 28 -17 32 -70 29 -972 325 -988 324
-11 0 -220 -68 -465 -150z m897 -65 c227 -76 409 -142 405 -145 -4 -3 -193
-68 -419 -144 l-413 -139 -412 139 c-227 76 -416 141 -420 144 -8 7 822 291
837 287 6 -1 195 -65 422 -142z m-715 -410 l288 -96 288 96 c158 53 290 96
295 96 4 0 6 -120 5 -266 l-3 -267 -36 -13 c-129 -44 -475 -71 -713 -55 -168
11 -321 34 -385 55 l-36 13 -3 267 c-1 146 1 266 5 266 5 0 137 -43 295 -96z
m1218 -654 l0 -120 -25 16 c-23 15 -27 15 -50 0 l-25 -16 0 120 0 120 50 0 50
0 0 -120z m-1838 -137 c34 -37 53 -77 67 -141 6 -29 11 -55 11 -57 0 -2 -35
-5 -77 -7 l-78 -3 -24 -44 c-20 -37 -25 -59 -25 -124 0 -75 0 -77 -15 -50 -21
39 -41 129 -41 185 0 135 64 268 130 268 16 0 37 -11 52 -27z m857 5 c13 -11
35 -46 50 -77 23 -50 26 -68 26 -166 0 -98 -3 -116 -26 -166 -50 -106 -17 -99
-451 -99 l-377 0 19 33 c30 51 50 144 50 232 -1 93 -12 150 -44 217 l-23 48
377 0 c372 0 377 0 399 -22z m211 -15 c88 -107 86 -369 -5 -460 -28 -28 -40
-33 -79 -33 l-45 0 18 33 c34 57 52 138 52 232 0 94 -18 175 -52 233 l-18 32
49 0 c44 0 51 -4 80 -37z m602 -25 c3 -58 5 -63 27 -66 16 -3 34 7 57 29 l33
32 36 -32 c23 -20 45 -31 58 -29 19 3 23 11 27 58 l5 55 22 -28 c38 -49 57
-124 57 -222 0 -105 -21 -179 -66 -231 l-30 -34 -379 0 -379 0 24 48 c30 60
46 135 46 217 0 82 -16 157 -46 218 l-24 47 264 0 265 0 3 -62z m-1592 -243
c0 -23 -26 -117 -40 -145 -25 -49 -57 -77 -72 -62 -15 15 -22 151 -9 185 10
25 15 27 66 27 30 0 55 -2 55 -5z m770 -309 c0 -7 -72 -191 -76 -195 -3 -3
-11 5 -20 17 -17 25 -50 28 -78 7 -11 -8 -23 -15 -27 -15 -4 0 10 43 30 95
l36 95 68 0 c37 0 67 -2 67 -4z m287 -85 c40 -102 40 -108 8 -87 -34 22 -61
20 -79 -6 -9 -12 -17 -20 -20 -17 -6 6 -76 182 -76 191 0 5 30 8 67 6 l67 -3
33 -84z"/>
</g>
</svg>
