<?xml version="1.0" standalone="no"?>
<!DOCTYPE svg PUBLIC "-//W3C//DTD SVG 20010904//EN"
 "http://www.w3.org/TR/2001/REC-SVG-20010904/DTD/svg10.dtd">
<svg version="1.0" xmlns="http://www.w3.org/2000/svg"
 width="65" height="65" viewBox="0 0 334.000000 334.000000"
 preserveAspectRatio="xMidYMid meet">
 <metadata>
Icon created by monkik
</metadata>
<g transform="translate(0.000000,334.000000) scale(0.100000,-0.100000)"
fill="#000000" stroke="none">
<path d="M1500 3264 c-14 -3 -65 -12 -113 -20 -291 -48 -596 -206 -825 -428
-221 -213 -386 -509 -451 -808 -93 -432 -9 -874 240 -1248 87 -132 300 -344
434 -433 115 -76 273 -154 390 -192 593 -195 1241 -34 1666 413 212 223 345
468 415 768 27 112 28 132 28 349 0 219 -1 236 -28 345 -81 327 -212 565 -436
790 -224 225 -505 377 -818 441 -71 15 -148 21 -287 24 -104 2 -201 1 -215 -1z
m405 -105 c326 -49 606 -191 845 -429 237 -236 374 -506 431 -850 15 -96 15
-332 0 -435 -86 -561 -473 -1029 -1002 -1211 -151 -52 -276 -75 -443 -81 -266
-10 -491 39 -728 159 -157 79 -273 163 -393 284 -257 260 -403 569 -436 931
-30 317 39 624 202 906 61 104 120 179 223 285 341 351 820 513 1301 441z"/>
<path d="M2197 2818 c-14 -11 -18 -58 -27 -388 -5 -206 -13 -468 -16 -583 l-7
-207 -51 -30 -51 -29 -5 156 c-4 125 -8 158 -20 165 -12 8 -86 -29 -299 -147
-156 -87 -292 -160 -302 -162 -17 -5 -19 5 -21 147 -2 123 -6 155 -18 162 -11
7 -101 -39 -345 -174 l-330 -184 0 -414 0 -415 980 0 980 0 3 591 c3 673 9
626 -85 575 -36 -20 -55 -26 -58 -18 -2 7 -8 221 -15 477 -10 412 -13 466 -27
478 -12 8 -58 12 -143 12 -85 0 -132 -4 -143 -12z m231 -95 l3 -33 -90 0 -91
0 0 28 c0 16 3 32 7 36 4 4 43 5 88 4 l80 -3 3 -32z m6 -175 c3 -35 8 -191 11
-348 3 -157 8 -308 11 -336 l5 -51 -118 -66 c-65 -36 -119 -64 -121 -62 -5 5
18 832 24 883 l5 42 88 0 89 0 6 -62z m-1084 -1058 c8 -6 20 -8 26 -6 6 2 140
76 299 165 158 89 290 161 292 161 1 0 3 -69 3 -154 0 -182 4 -190 71 -155 44
22 437 239 517 285 l42 25 0 -516 0 -515 -300 0 -299 0 -3 118 -3 117 -310 0
-310 0 -3 -117 -3 -118 -299 0 -300 0 2 362 3 361 275 152 275 153 5 -155 c4
-122 8 -156 20 -163z m300 -625 l0 -85 -105 0 -105 0 0 85 0 85 105 0 105 0 0
-85z m280 0 l0 -85 -105 0 -105 0 0 85 0 85 105 0 105 0 0 -85z"/>
<path d="M882 1398 c-16 -16 -16 -170 0 -186 8 -8 60 -12 170 -12 183 0 178
-3 178 105 0 108 5 105 -178 105 -110 0 -162 -4 -170 -12z m276 -90 l-3 -33
-105 0 -105 0 -3 33 -3 32 111 0 111 0 -3 -32z"/>
<path d="M1517 1404 c-12 -13 -8 -179 5 -192 18 -18 312 -17 327 2 8 9 11 46
9 103 l-3 88 -166 3 c-91 1 -168 -1 -172 -4z m273 -99 l0 -35 -105 0 -105 0 0
35 0 35 105 0 105 0 0 -35z"/>
<path d="M2150 1384 c-6 -14 -10 -49 -10 -79 0 -30 4 -65 10 -79 l10 -26 158
0 c110 0 162 4 170 12 7 7 12 43 12 93 0 50 -5 86 -12 93 -8 8 -60 12 -170 12
l-158 0 -10 -26z m280 -79 l0 -35 -105 0 -105 0 0 35 0 35 105 0 105 0 0 -35z"/>
</g>
</svg>
