<?xml version="1.0" standalone="no"?>
<!DOCTYPE svg PUBLIC "-//W3C//DTD SVG 20010904//EN"
 "http://www.w3.org/TR/2001/REC-SVG-20010904/DTD/svg10.dtd">
<svg version="1.0" xmlns="http://www.w3.org/2000/svg"
 width="568.000000pt" height="534.000000pt" viewBox="0 0 568.000000 534.000000"
 preserveAspectRatio="xMidYMid meet">
<metadata>
Created by potrace 1.15, written by Peter Selinger 2001-2017
</metadata>
<g transform="translate(0.000000,534.000000) scale(0.100000,-0.100000)"
fill="#000000" stroke="none">
<path d="M2565 5149 c-375 -35 -766 -171 -1084 -379 -159 -104 -248 -177 -392
-320 -318 -317 -528 -688 -638 -1128 -52 -206 -65 -323 -65 -577 0 -260 13
-370 70 -598 198 -788 802 -1438 1570 -1690 290 -95 459 -122 774 -121 249 0
378 14 580 65 332 83 657 244 920 455 483 388 791 925 887 1544 24 161 24 529
0 690 -50 320 -176 666 -340 929 -126 203 -349 455 -538 608 -478 388 -1120
580 -1744 522z m598 -163 c227 -38 445 -110 661 -218 202 -101 370 -223 555
-403 202 -197 329 -370 455 -625 175 -353 245 -706 224 -1135 -34 -738 -450
-1420 -1107 -1815 -299 -179 -619 -278 -1007 -311 -217 -19 -449 3 -707 65
-707 171 -1319 721 -1574 1416 -152 416 -177 924 -68 1344 84 322 231 615 438
871 135 167 383 386 568 502 232 145 543 261 826 309 203 34 532 34 736 0z"/>
<path d="M3557 4473 c-16 -19 -20 -119 -48 -1153 -6 -228 -14 -460 -17 -515
l-7 -99 -75 -42 -75 -42 -3 226 c-2 193 -5 229 -19 244 -9 10 -25 18 -35 18
-11 0 -217 -110 -459 -244 l-439 -244 0 216 c0 233 -6 264 -49 270 -36 5
-1000 -534 -1012 -566 -6 -14 -8 -271 -7 -614 3 -570 4 -590 22 -604 17 -12
233 -14 1464 -14 976 0 1450 3 1463 10 19 10 19 31 19 891 l0 879 -26 12 c-24
11 -35 8 -107 -30 -44 -23 -82 -41 -84 -39 -6 7 -43 1166 -43 1355 0 102 0
102 -243 102 -182 0 -206 -2 -220 -17z m357 -124 c14 -73 21 -69 -134 -69
l-140 0 0 50 0 50 134 0 134 0 6 -31z m10 -376 c15 -437 26 -823 26 -914 l0
-95 -172 -96 c-95 -53 -174 -95 -176 -93 -3 3 24 1028 34 1248 l6 147 138 0
137 0 7 -197z m256 -1778 l0 -775 -450 0 -450 0 0 155 c0 163 -8 199 -44 209
-11 3 -213 6 -448 6 -415 0 -429 -1 -448 -20 -18 -18 -20 -33 -20 -185 l0
-165 -450 0 -450 0 0 539 0 539 412 228 c226 126 418 230 425 232 10 3 13 -41
13 -225 0 -243 2 -253 48 -253 14 0 219 108 458 240 238 132 435 240 438 240
3 0 6 -101 6 -224 0 -243 3 -256 55 -256 12 0 220 110 461 244 242 135 440
245 442 245 1 1 2 -348 2 -774z m-1432 -647 l3 -128 -161 0 -160 0 0 130 0
131 158 -3 157 -3 3 -127z m422 2 l0 -130 -160 0 -160 0 0 130 0 130 160 0
160 0 0 -130z"/>
<path d="M1597 2352 c-14 -15 -17 -41 -17 -144 0 -108 2 -127 18 -141 16 -15
49 -17 249 -17 210 0 231 2 246 18 14 15 17 41 17 144 0 108 -2 127 -18 141
-16 15 -49 17 -249 17 -210 0 -231 -2 -246 -18z m403 -142 l0 -50 -155 0 -155
0 0 50 0 50 155 0 155 0 0 -50z"/>
<path d="M2550 2350 c-18 -18 -20 -33 -20 -140 0 -171 -18 -160 269 -160 195
0 232 2 245 16 13 12 16 40 16 144 0 104 -3 132 -16 144 -13 14 -50 16 -245
16 -216 0 -230 -1 -249 -20z m410 -140 l0 -50 -160 0 -160 0 0 50 0 50 160 0
160 0 0 -50z"/>
<path d="M3507 2352 c-14 -15 -17 -41 -17 -144 0 -108 2 -127 18 -141 16 -15
48 -17 245 -17 284 0 267 -10 267 158 0 174 20 162 -264 162 -213 0 -234 -2
-249 -18z m403 -142 l0 -50 -160 0 -160 0 0 50 0 50 160 0 160 0 0 -50z"/>
</g>
</svg>
