<?xml version="1.0" standalone="no"?>
<!DOCTYPE svg PUBLIC "-//W3C//DTD SVG 20010904//EN"
 "http://www.w3.org/TR/2001/REC-SVG-20010904/DTD/svg10.dtd">
<svg version="1.0" xmlns="http://www.w3.org/2000/svg"
 width="606.000000pt" height="574.000000pt" viewBox="0 0 606.000000 574.000000"
 preserveAspectRatio="xMidYMid meet">
<metadata>
Created by potrace 1.15, written by Peter Selinger 2001-2017
</metadata>
<g transform="translate(0.000000,574.000000) scale(0.100000,-0.100000)"
fill="#000000" stroke="none">
<path d="M2870 5324 c-485 -44 -956 -233 -1320 -528 -102 -82 -292 -273 -370
-371 -266 -336 -440 -735 -507 -1165 -24 -161 -24 -529 0 -690 55 -355 182
-689 369 -973 388 -587 979 -966 1678 -1074 161 -24 529 -24 690 0 605 94
1137 394 1517 854 281 341 460 745 530 1193 24 161 24 529 0 690 -82 525 -312
986 -677 1350 -150 151 -235 221 -397 328 -281 185 -619 314 -963 367 -101 15
-454 28 -550 19z m563 -168 c369 -62 695 -201 992 -424 129 -97 372 -340 462
-462 326 -441 468 -924 441 -1495 -26 -566 -281 -1112 -704 -1507 -347 -324
-721 -512 -1186 -594 -192 -34 -553 -33 -746 0 -370 65 -685 200 -982 419
-122 90 -365 333 -462 462 -301 402 -448 844 -448 1357 -1 280 28 460 115 726
111 342 277 606 549 878 153 153 283 256 445 354 233 140 503 238 788 286 203
34 532 34 736 0z"/>
<path d="M1635 4341 c-76 -19 -146 -83 -165 -151 -6 -22 -10 -413 -10 -1022
l0 -988 -98 0 c-133 0 -136 -3 -130 -143 4 -82 9 -113 30 -157 32 -69 85 -122
157 -158 l56 -27 1056 -3 c683 -2 1065 1 1082 7 35 13 46 55 22 81 -18 20 -38
20 -1065 20 -1170 0 -1107 -4 -1174 70 -38 42 -56 92 -56 158 l0 42 640 0
c519 0 640 -2 640 -13 0 -7 12 -37 26 -65 19 -39 38 -59 72 -80 l47 -27 265
-3 c177 -3 283 0 318 8 70 15 126 67 144 133 l12 47 638 0 638 0 0 -54 c0 -63
-18 -111 -57 -150 -62 -62 -50 -61 -496 -64 l-407 -3 -16 -24 c-15 -23 -15
-27 0 -50 9 -14 27 -27 40 -31 13 -3 198 -4 412 -2 l389 3 55 26 c77 36 124
80 157 147 24 49 28 72 31 163 6 151 7 149 -128 149 l-110 0 -2 998 -3 998
-26 49 c-30 59 -88 104 -150 116 -54 10 -2792 10 -2834 0z m2867 -139 l33 -32
0 -993 0 -992 -1482 -3 -1483 -2 0 985 c0 1090 -3 1031 63 1060 27 12 255 14
1434 12 l1403 -2 32 -33z m-1112 -2145 c0 -23 -39 -56 -72 -62 -18 -3 -147 -5
-286 -3 l-254 3 -24 28 c-13 15 -24 32 -24 38 0 5 130 9 330 9 266 0 330 -3
330 -13z"/>
<path d="M1676 4118 c-14 -20 -16 -123 -16 -908 0 -785 2 -888 16 -908 l15
-22 1363 0 c1046 0 1365 3 1374 12 17 17 17 1819 0 1836 -9 9 -266 12 -1094
12 -1181 0 -1109 4 -1102 -57 2 -17 12 -32 28 -40 20 -10 246 -13 1048 -13
l1022 0 0 -820 0 -820 -1280 0 -1280 0 0 820 0 820 128 0 c144 0 175 10 180
53 6 54 -4 57 -204 57 -178 0 -183 -1 -198 -22z"/>
</g>
</svg>
