<?xml version="1.0" standalone="no"?>
<!DOCTYPE svg PUBLIC "-//W3C//DTD SVG 20010904//EN"
 "http://www.w3.org/TR/2001/REC-SVG-20010904/DTD/svg10.dtd">
<svg version="1.0" xmlns="http://www.w3.org/2000/svg"
 width="65" height="65" viewBox="0 0 334.000000 332.000000"
 preserveAspectRatio="xMidYMid meet">
 <metadata>
  Icon created by srip
</metadata>
<g transform="translate(0.000000,332.000000) scale(0.100000,-0.100000)"
fill="#000000" stroke="none">
<path d="M1540 3234 c-512 -61 -933 -318 -1204 -737 -254 -390 -321 -876 -186
-1337 41 -138 152 -362 236 -475 88 -117 267 -294 377 -372 172 -121 367 -206
593 -259 111 -26 134 -28 334 -28 200 0 223 2 334 28 315 73 551 199 779 416
315 298 496 719 497 1155 1 699 -444 1314 -1111 1534 -153 50 -275 71 -454 75
-88 2 -176 2 -195 0z m371 -109 c109 -15 187 -35 306 -78 451 -163 816 -568
939 -1042 60 -228 59 -521 -1 -755 -134 -524 -561 -951 -1085 -1085 -234 -60
-527 -61 -755 -1 -590 153 -1037 650 -1120 1244 -76 543 129 1060 558 1405
168 135 330 217 552 279 165 47 414 60 606 33z"/>
<path d="M924 2706 c-46 -20 -102 -74 -127 -120 -27 -52 -29 -155 -3 -206 10
-19 162 -180 338 -357 l321 -321 -37 -38 c-62 -64 -83 -74 -161 -74 -213 0
-387 -123 -447 -313 -20 -65 -24 -199 -8 -242 20 -52 36 -44 170 90 l127 127
97 -20 c53 -11 99 -22 103 -25 3 -4 14 -50 25 -103 l20 -97 -127 -127 c-134
-134 -142 -150 -90 -170 15 -6 62 -10 105 -10 261 0 450 195 450 465 0 77 8
94 79 163 l34 34 296 -295 296 -295 205 -51 c178 -45 206 -49 219 -37 12 13 7
41 -38 223 l-51 208 -290 290 c-160 160 -290 294 -290 299 0 14 103 106 120
107 8 0 51 2 95 4 190 7 339 110 412 286 22 53 27 80 27 159 1 100 -11 140
-42 140 -9 0 -73 -56 -142 -124 l-125 -125 -102 21 -101 21 -20 101 -19 101
123 125 c68 69 124 133 124 142 0 30 -40 42 -140 42 -80 0 -105 -5 -159 -27
-178 -75 -280 -223 -286 -417 -2 -47 -3 -90 -4 -96 -1 -14 -95 -114 -107 -114
-5 0 -150 142 -324 314 -232 232 -327 320 -360 335 -52 24 -140 27 -186 7z
m164 -70 c15 -8 47 -35 72 -60 l44 -46 -119 -120 c-77 -77 -123 -116 -131
-112 -31 17 -104 115 -110 147 -14 75 22 153 86 186 42 23 120 25 158 5z
m1292 -1 c0 -3 -47 -53 -105 -111 -58 -57 -105 -110 -104 -117 0 -7 12 -70 27
-142 l27 -130 130 -27 c72 -15 136 -27 143 -28 7 0 61 48 120 106 l107 105 3
-39 c4 -49 -30 -152 -68 -208 -40 -57 -83 -92 -158 -127 -52 -24 -80 -30 -155
-34 -129 -6 -133 -7 -202 -73 l-61 -60 -49 50 -49 50 73 74 c49 49 72 80 69
92 -7 40 -40 27 -114 -47 l-74 -73 -50 49 -50 49 54 56 c29 30 59 65 65 77 6
12 13 67 14 122 3 92 6 106 40 175 54 108 130 170 247 202 46 13 120 18 120 9z
m-1148 -368 l-119 -119 -27 17 c-15 10 -36 31 -48 47 l-21 30 119 119 119 119
47 -47 48 -48 -118 -118z m773 -537 l600 -600 -50 0 -50 0 -572 572 c-315 315
-573 577 -573 582 0 11 30 46 39 46 3 0 276 -270 606 -600z m-118 -72 c473
-474 574 -579 579 -607 17 -82 -35 -36 -630 559 -575 574 -580 579 -561 600
10 11 23 20 29 20 6 0 269 -258 583 -572z m473 -715 c0 -24 -2 -43 -4 -43 -3
0 -273 268 -601 596 l-597 596 23 24 23 25 578 -578 578 -578 0 -42z m-812
664 c23 -23 42 -47 42 -53 0 -5 -32 -41 -70 -79 -48 -48 -70 -76 -68 -90 6
-42 41 -28 113 45 38 38 74 70 80 70 6 0 31 -20 55 -45 l44 -45 -56 -58 c-68
-69 -78 -92 -78 -186 0 -206 -123 -360 -315 -395 -71 -13 -85 -14 -85 -2 0 5
45 54 100 110 70 70 100 107 100 123 -1 41 -47 249 -58 260 -11 11 -219 57
-259 58 -14 0 -55 -34 -123 -101 -60 -60 -105 -98 -111 -92 -14 14 9 130 36
184 69 135 197 209 362 209 91 0 125 14 188 79 27 28 52 51 55 51 3 0 25 -19
48 -43z m1129 -602 c18 -70 18 -72 -27 -101 -22 -15 -50 -43 -62 -63 -12 -20
-22 -37 -23 -39 -2 -2 -32 5 -69 14 l-66 16 0 61 0 60 48 -7 c67 -8 76 1 68
63 l-7 52 62 -3 63 -3 13 -50z m51 -203 l10 -43 -41 6 c-72 12 -76 18 -33 61
21 21 41 33 45 28 5 -5 13 -28 19 -52z"/>
</g>
</svg>
