<?xml version="1.0" standalone="no"?>
<!DOCTYPE svg PUBLIC "-//W3C//DTD SVG 20010904//EN"
 "http://www.w3.org/TR/2001/REC-SVG-20010904/DTD/svg10.dtd">
<svg version="1.0" xmlns="http://www.w3.org/2000/svg"
 width="65" height="65" viewBox="0 0 334.000000 336.000000"
 preserveAspectRatio="xMidYMid meet">
<metadata>
Icon created by freepik
</metadata>
<g transform="translate(0.000000,336.000000) scale(0.100000,-0.100000)"
fill="#000000" stroke="none">
<path d="M1510 3294 c-503 -60 -922 -313 -1192 -719 -137 -207 -219 -429 -253
-688 -19 -149 -19 -245 0 -394 60 -459 278 -827 653 -1106 174 -129 371 -218
608 -273 110 -26 135 -28 334 -28 201 0 223 2 334 28 161 37 268 76 410 148
330 168 621 488 750 824 92 240 121 408 113 659 -6 191 -26 301 -83 467 -110
322 -341 622 -625 816 -153 104 -398 203 -597 242 -103 21 -365 34 -452 24z
m370 -108 c504 -72 949 -407 1157 -871 96 -216 133 -386 133 -625 0 -203 -22
-333 -85 -510 -152 -425 -489 -763 -912 -914 -290 -104 -637 -115 -928 -31
-468 136 -857 504 -1013 960 -61 178 -76 279 -76 495 0 214 15 318 73 484 169
487 561 849 1061 982 162 43 411 56 590 30z"/>
<path d="M1500 2890 c-360 -97 -522 -532 -316 -843 73 -109 196 -201 312 -232
77 -21 231 -21 308 0 167 45 318 190 378 363 32 93 32 247 1 347 -38 121 -158
266 -266 322 -118 60 -287 78 -417 43z"/>
<path d="M1096 1779 c-123 -29 -233 -128 -301 -272 -65 -137 -88 -260 -89
-467 -1 -160 0 -167 27 -225 51 -109 152 -188 275 -214 73 -15 1240 -15 1314
0 127 27 219 97 272 209 31 65 31 66 31 230 0 176 -13 263 -60 401 -69 205
-216 333 -397 345 l-73 6 -105 -66 c-133 -84 -206 -108 -325 -109 -115 0 -185
23 -325 109 -114 69 -146 76 -244 53z"/>
</g>
</svg>
