<?xml version="1.0" standalone="no"?>
<!DOCTYPE svg PUBLIC "-//W3C//DTD SVG 20010904//EN"
 "http://www.w3.org/TR/2001/REC-SVG-20010904/DTD/svg10.dtd">
<svg version="1.0" xmlns="http://www.w3.org/2000/svg"
 width="598.000000pt" height="552.000000pt" viewBox="0 0 598.000000 552.000000"
 preserveAspectRatio="xMidYMid meet">
<metadata>
Created by potrace 1.15, written by Peter Selinger 2001-2017
</metadata>
<g transform="translate(0.000000,552.000000) scale(0.100000,-0.100000)"
fill="#000000" stroke="none">
<path d="M2880 5324 c-167 -20 -218 -28 -305 -45 -1022 -206 -1802 -1066
-1915 -2111 -15 -141 -12 -404 5 -548 55 -440 236 -870 515 -1220 77 -97 268
-286 382 -378 316 -257 704 -424 1153 -499 156 -26 531 -25 700 1 808 125
1472 616 1826 1351 325 675 316 1455 -25 2130 -238 469 -609 836 -1087 1074
-230 115 -450 183 -729 226 -100 15 -445 28 -520 19z m438 -155 c932 -104
1713 -783 1942 -1689 57 -226 64 -285 65 -560 0 -274 -6 -330 -56 -538 -60
-247 -159 -480 -294 -692 -85 -134 -153 -218 -285 -354 -204 -210 -396 -349
-664 -477 -230 -110 -466 -175 -743 -204 -174 -19 -262 -19 -438 0 -344 36
-648 135 -933 301 -456 267 -824 715 -992 1208 -92 271 -123 457 -123 746 -1
222 13 348 60 540 157 649 592 1193 1196 1497 240 120 510 198 787 226 83 9
389 6 478 -4z"/>
<path d="M2931 4739 c-194 -25 -361 -114 -503 -268 -145 -158 -218 -345 -218
-561 0 -232 83 -431 248 -594 154 -152 324 -229 537 -242 447 -29 845 308 883
746 23 272 -56 496 -239 679 -138 138 -299 218 -489 241 -95 11 -127 11 -219
-1z"/>
<path d="M2285 3059 c-361 -51 -581 -348 -649 -877 -20 -157 -21 -395 -1 -479
48 -204 203 -360 410 -413 75 -19 111 -20 1016 -20 633 0 955 4 991 11 220 45
382 187 443 389 51 170 16 599 -69 854 -90 266 -256 450 -465 512 -79 23 -199
35 -241 24 -20 -5 -92 -46 -161 -90 -273 -177 -490 -212 -750 -122 -75 26
-104 42 -239 127 -158 99 -166 101 -285 84z"/>
</g>
</svg>
